<svg width="64" height="64" viewBox="0 0 64 64" fill="none" xmlns="http://www.w3.org/2000/svg">
<circle cx="32" cy="32" r="32" fill="#131313"/>
<path d="M14.508 29.008C14.052 28.624 13.26 28.12 12.132 27.496C11.028 26.848 10.176 26.524 9.576 26.524C9.096 26.524 8.856 26.764 8.856 27.244C8.856 27.412 8.916 27.7 9.036 28.108C9.204 28.66 9.576 29.188 10.152 29.692C10.728 30.172 11.484 30.736 12.42 31.384C13.188 31.912 13.68 32.272 13.896 32.464C14.952 33.376 15.792 34.144 16.416 34.768C17.04 35.368 17.604 36.088 18.108 36.928C18.636 37.744 18.9 38.584 18.9 39.448C18.9 40.024 18.756 40.624 18.468 41.248C17.916 42.376 17.004 43.24 15.732 43.84C14.484 44.44 13.152 44.74 11.736 44.74C11.256 44.74 10.776 44.704 10.296 44.632C7.032 44.08 4.02 41.908 1.26 38.116C1.116 37.9 1.044 37.684 1.044 37.468C1.044 36.94 1.392 36.46 2.088 36.028C2.808 35.572 3.516 35.344 4.212 35.344C4.74 35.344 5.124 35.5 5.364 35.812C6.852 37.828 8.316 39.304 9.756 40.24C11.076 41.104 12.192 41.536 13.104 41.536C13.848 41.536 14.22 41.212 14.22 40.564C14.22 40.108 14.04 39.544 13.68 38.872C13.32 38.224 12.852 37.612 12.276 37.036C11.7 36.46 10.968 35.8 10.08 35.056L9.108 34.228C9.012 34.132 8.568 33.784 7.776 33.184C7.128 32.704 6.576 32.26 6.12 31.852C5.664 31.444 5.28 31 4.968 30.52C4.56 29.872 4.356 29.2 4.356 28.504C4.356 27.424 4.812 26.44 5.724 25.552C6.66 24.64 7.728 24.016 8.928 23.68C9.696 23.464 10.428 23.356 11.124 23.356C12.42 23.356 13.668 23.656 14.868 24.256C16.092 24.856 17.328 25.684 18.576 26.74C18.792 26.908 18.9 27.112 18.9 27.352C18.9 27.808 18.528 28.252 17.784 28.684C17.04 29.116 16.308 29.332 15.588 29.332C15.108 29.332 14.748 29.224 14.508 29.008ZM29.3158 23.284C29.8198 23.236 30.2038 23.296 30.4678 23.464C30.7558 23.632 31.0558 23.956 31.3678 24.436C31.5598 24.748 31.6558 25.012 31.6558 25.228C31.6558 25.756 31.3198 26.068 30.6478 26.164L29.3878 26.308C28.2118 26.476 27.5878 26.56 27.5158 26.56C27.1078 30.4 26.7838 33.736 26.5438 36.568C26.3038 39.4 26.1478 42.196 26.0758 44.956C26.0518 45.292 25.9078 45.544 25.6438 45.712C25.4038 45.88 25.0798 45.964 24.6718 45.964C23.9518 45.964 23.2318 45.772 22.5118 45.388C21.8158 44.98 21.4798 44.524 21.5038 44.02C21.5758 41.476 21.7198 38.884 21.9358 36.244C22.1518 33.58 22.4398 30.496 22.7998 26.992L20.5318 27.28C20.1958 27.304 19.9318 27.292 19.7398 27.244C19.5718 27.172 19.4038 27.028 19.2358 26.812C19.0678 26.596 18.8998 26.356 18.7318 26.092C18.5398 25.828 18.4438 25.564 18.4438 25.3C18.4438 25.084 18.5278 24.892 18.6958 24.724C18.8638 24.556 19.1158 24.448 19.4518 24.4C19.9798 24.328 20.5918 24.244 21.2878 24.148L23.1238 23.896L23.7718 17.668C23.8438 16.996 24.3358 16.66 25.2478 16.66C25.9678 16.66 26.6638 16.864 27.3358 17.272C28.0318 17.656 28.3558 18.1 28.3078 18.604L27.8398 23.428C28.5118 23.38 29.0038 23.332 29.3158 23.284ZM36.7723 33.796L36.4843 34.516L39.0043 36.64L38.7523 35.596C38.5843 34.924 38.2483 33.496 37.7443 31.312L36.7723 33.796ZM40.8763 23.284C41.2123 25.372 41.6323 27.496 42.1363 29.656C42.6643 31.792 43.3003 34.252 44.0443 37.036C44.7403 39.676 45.1963 41.428 45.4123 42.292C45.4363 42.364 45.4483 42.472 45.4483 42.616C45.4483 43.192 45.1243 43.696 44.4763 44.128C43.8283 44.536 43.1563 44.74 42.4603 44.74C41.8843 44.74 41.4403 44.584 41.1283 44.272C40.4323 43.528 39.7003 42.82 38.9323 42.148C38.1643 41.476 37.1563 40.648 35.9083 39.664L34.7203 38.692C33.7123 40.852 32.9323 42.448 32.3803 43.48C32.2123 43.84 31.7683 44.176 31.0483 44.488C30.3523 44.776 29.7043 44.92 29.1043 44.92C28.4323 44.92 28.0963 44.704 28.0963 44.272C28.0963 44.152 28.1323 44.008 28.2043 43.84C28.9243 42.064 29.7763 40.024 30.7603 37.72L31.5163 35.884C30.9163 35.284 30.6163 34.984 30.6163 34.984C30.4483 34.816 30.3643 34.624 30.3643 34.408C30.3643 34 30.6283 33.616 31.1563 33.256C31.6843 32.872 32.2723 32.62 32.9203 32.5C34.0723 29.74 35.1523 26.932 36.1603 24.076C36.2563 23.74 36.5563 23.452 37.0603 23.212C37.5883 22.948 38.1403 22.78 38.7163 22.708C39.1243 22.588 39.4723 22.528 39.7603 22.528C40.4323 22.528 40.8043 22.78 40.8763 23.284ZM57.9431 30.196C58.0391 29.716 58.3991 29.308 59.0231 28.972C59.6711 28.636 60.3071 28.468 60.9311 28.468C61.7471 28.468 62.1071 28.78 62.0111 29.404L61.8671 30.232C61.5071 32.272 61.1351 34 60.7511 35.416C60.3911 36.808 59.8271 38.164 59.0591 39.484C58.3151 40.804 57.3311 41.848 56.1071 42.616C54.5231 43.624 52.9031 44.128 51.2471 44.128C50.2631 44.128 49.3391 43.924 48.4751 43.516C47.6351 43.108 46.9271 42.472 46.3511 41.608C45.3431 40.12 44.8391 38.416 44.8391 36.496C44.8391 33.904 45.7631 30.904 47.6111 27.496C48.2351 26.32 48.8831 25.384 49.5551 24.688C50.2511 23.992 51.1151 23.572 52.1471 23.428C52.2431 23.404 52.3751 23.392 52.5431 23.392C52.9271 23.392 53.2631 23.464 53.5511 23.608C54.2711 22.024 54.8231 20.836 55.2071 20.044C55.3751 19.684 55.7711 19.372 56.3951 19.108C57.0431 18.844 57.6431 18.712 58.1951 18.712C58.9151 18.712 59.2751 18.94 59.2751 19.396C59.2751 19.492 59.2391 19.636 59.1671 19.828C57.5111 23.86 56.1671 26.992 55.1351 29.224C54.9671 29.608 54.5711 29.932 53.9471 30.196C53.3471 30.46 52.7591 30.592 52.1831 30.592C51.7991 30.592 51.4871 30.532 51.2471 30.412C51.0071 30.292 50.8871 30.1 50.8871 29.836C50.8871 29.668 50.9351 29.488 51.0311 29.296L51.5711 28.072C51.4511 28.048 51.3431 27.988 51.2471 27.892L50.5271 29.584C49.8551 31.048 49.4111 32.512 49.1951 33.976C49.1231 34.432 49.0871 34.9 49.0871 35.38C49.0871 36.412 49.2431 37.384 49.5551 38.296C49.8671 39.208 50.3591 39.94 51.0311 40.492C51.5831 40.972 52.1231 41.212 52.6511 41.212C54.7631 41.212 56.5271 37.54 57.9431 30.196Z" fill="white"/>
</svg>
